<svg width="33" height="33" viewBox="0 0 33 33" fill="none" xmlns="http://www.w3.org/2000/svg">
<circle cx="16.5" cy="16.5" r="16" fill="#0F8D84" stroke="#0F8D84"/>
<path d="M11.3298 20.3352C11.7831 19.9752 11.9898 19.8085 11.9498 19.8352C13.2565 18.7552 14.2831 17.8685 15.0298 17.1752C15.7898 16.4819 16.4298 15.7552 16.9498 14.9952C17.4698 14.2352 17.7298 13.4952 17.7298 12.7752C17.7298 12.2285 17.6031 11.8019 17.3498 11.4952C17.0965 11.1885 16.7165 11.0352 16.2098 11.0352C15.7031 11.0352 15.3031 11.2285 15.0098 11.6152C14.7298 11.9885 14.5898 12.5219 14.5898 13.2152H11.2898C11.3165 12.0819 11.5565 11.1352 12.0098 10.3752C12.4765 9.61519 13.0831 9.05519 13.8298 8.69519C14.5898 8.33519 15.4298 8.15519 16.3498 8.15519C17.9365 8.15519 19.1298 8.56186 19.9298 9.37519C20.7431 10.1885 21.1498 11.2485 21.1498 12.5552C21.1498 13.9819 20.6631 15.3085 19.6898 16.5352C18.7165 17.7485 17.4765 18.9352 15.9698 20.0952H21.3698V22.8752H11.3298V20.3352Z" fill="#F8F4EA"/>
</svg>
