<svg width="80" height="80" viewBox="0 0 80 80" fill="none" xmlns="http://www.w3.org/2000/svg">
<path d="M66.5 70C59.3333 70 52.3478 68.4167 45.5433 65.25C38.7389 62.0833 32.7111 57.8611 27.46 52.5833C22.2089 47.3056 17.9867 41.2633 14.7933 34.4567C11.6 27.65 10.0022 20.6644 10 13.5V11.75C10 11.1389 10.0556 10.5556 10.1667 10H29.6667L32.75 26.75L23.25 36.3333C25.5833 40.3333 28.5144 44.0833 32.0433 47.5833C35.5722 51.0833 39.4467 54.1111 43.6667 56.6667L53.3333 47L70 50.3333V69.8333C69.4444 69.8889 68.8611 69.9311 68.25 69.96C67.6389 69.9889 67.0556 70.0022 66.5 70Z" fill="#1A776F"/>
</svg>
