<svg width="40" height="40" viewBox="0 0 40 40" fill="none" xmlns="http://www.w3.org/2000/svg">
<path d="M20.0014 22.7777C20.7381 22.7777 21.4447 22.4851 21.9656 21.9641C22.4865 21.4432 22.7792 20.7367 22.7792 19.9999C22.7792 19.2632 22.4865 18.5567 21.9656 18.0358C21.4447 17.5148 20.7381 17.2222 20.0014 17.2222C19.2647 17.2222 18.5582 17.5148 18.0372 18.0358C17.5163 18.5567 17.2236 19.2632 17.2236 19.9999C17.2236 20.7367 17.5163 21.4432 18.0372 21.9641C18.5582 22.4851 19.2647 22.7777 20.0014 22.7777V22.7777Z" stroke="#232323" stroke-linecap="round" stroke-linejoin="round"/>
<path d="M13.751 22.7778V17.2222C13.751 16.3013 14.1168 15.4182 14.768 14.767C15.4191 14.1158 16.3023 13.75 17.2232 13.75H22.7788C23.6996 13.75 24.5828 14.1158 25.234 14.767C25.8852 15.4182 26.251 16.3013 26.251 17.2222V22.7778C26.251 23.6987 25.8852 24.5818 25.234 25.233C24.5828 25.8842 23.6996 26.25 22.7788 26.25H17.2232C16.3023 26.25 15.4191 25.8842 14.768 25.233C14.1168 24.5818 13.751 23.6987 13.751 22.7778Z" stroke="#232323"/>
<path d="M23.8203 16.1884L23.8282 16.1797" stroke="#232323" stroke-linecap="round" stroke-linejoin="round"/>
<circle cx="20" cy="20" r="19.5" stroke="#232323"/>
</svg>
