<svg width="41" height="40" viewBox="0 0 41 40" fill="none" xmlns="http://www.w3.org/2000/svg">
<path d="M21.6961 19.9997L19.2655 21.3886V18.6108L21.6961 19.9997Z" fill="#232323" stroke="#232323" stroke-linecap="round" stroke-linejoin="round"/>
<path d="M13.3632 20.4909V19.5082C13.3632 17.4978 13.3632 16.4923 13.9916 15.8457C14.6208 15.1985 15.6111 15.1707 17.5909 15.1145C18.5284 15.0881 19.4868 15.0693 20.3076 15.0693C21.1277 15.0693 22.0861 15.0881 23.0243 15.1145C25.0041 15.1707 25.9944 15.1985 26.6229 15.8457C27.252 16.4923 27.252 17.4985 27.252 19.5082V20.4909C27.252 22.502 27.252 23.5068 26.6236 24.1541C25.9944 24.8006 25.0048 24.8291 23.0243 24.8846C22.0868 24.9117 21.1284 24.9304 20.3076 24.9304C19.4019 24.9277 18.4962 24.9124 17.5909 24.8846C15.6111 24.8291 14.6208 24.8013 13.9916 24.1541C13.3632 23.5068 13.3632 22.5013 13.3632 20.4916V20.4909Z" stroke="#232323"/>
<circle cx="20.3076" cy="20" r="19.5" stroke="#232323"/>
</svg>
