<svg width="14" height="15" viewBox="0 0 14 15" fill="none" xmlns="http://www.w3.org/2000/svg">
<g clip-path="url(#clip0_14_832)">
<path fill-rule="evenodd" clip-rule="evenodd" d="M12.1603 11.9093C12.1603 14.2316 8.97568 14.5 6.58086 14.5L6.40949 14.4999C4.88371 14.4961 1 14.3998 1 11.8952C1 9.62037 4.05665 9.31635 6.43325 9.30488L6.75223 9.30468C8.27791 9.30839 12.1603 9.40472 12.1603 11.9093ZM6.58086 10.3614C3.57871 10.3614 2.05685 10.8771 2.05685 11.8952C2.05685 12.9225 3.57871 13.4432 6.58086 13.4432C9.58231 13.4432 11.1035 12.9274 11.1035 11.9093C11.1035 10.8821 9.58231 10.3614 6.58086 10.3614ZM6.58086 0.5C8.64383 0.5 10.3214 2.17828 10.3214 4.24124C10.3214 6.30421 8.64383 7.98178 6.58086 7.98178H6.55832C4.49958 7.97544 2.83187 6.29646 2.83889 4.23913C2.83889 2.17828 4.51719 0.5 6.58086 0.5ZM6.58086 1.50612C5.07239 1.50612 3.84502 2.73277 3.84502 4.24124C3.8401 5.74479 5.0583 6.97073 6.56043 6.97637L6.58086 7.47943V6.97637C8.08863 6.97637 9.31528 5.74901 9.31528 4.24124C9.31528 2.73277 8.08863 1.50612 6.58086 1.50612Z" fill="#232323"/>
</g>
<defs>
<clipPath id="clip0_14_832">
<rect width="14" height="14" fill="white" transform="translate(0 0.5)"/>
</clipPath>
</defs>
</svg>
