<svg width="14" height="15" viewBox="0 0 14 15" fill="none" xmlns="http://www.w3.org/2000/svg">
<path fill-rule="evenodd" clip-rule="evenodd" d="M9.28013 1.66699C11.1141 1.66699 12.3461 2.92291 12.3461 4.79191V10.1562C12.3461 12.0416 11.152 13.2677 9.30404 13.2794L4.81646 13.2812C2.98246 13.2812 1.74988 12.0252 1.74988 10.1562V4.79191C1.74988 2.90599 2.94396 1.68041 4.79196 1.66933L9.27954 1.66699H9.28013ZM9.28013 2.54199L4.79488 2.54433C3.43688 2.55249 2.62488 3.39249 2.62488 4.79191V10.1562C2.62488 11.565 3.44446 12.4062 4.81588 12.4062L9.30113 12.4044C10.6591 12.3962 11.4711 11.5551 11.4711 10.1562V4.79191C11.4711 3.38316 10.6521 2.54199 9.28013 2.54199ZM9.1676 9.52665C9.4091 9.52665 9.6051 9.72265 9.6051 9.96415C9.6051 10.2057 9.4091 10.4017 9.1676 10.4017H4.95594C4.71444 10.4017 4.51844 10.2057 4.51844 9.96415C4.51844 9.72265 4.71444 9.52665 4.95594 9.52665H9.1676ZM9.1676 7.08453C9.4091 7.08453 9.6051 7.28053 9.6051 7.52203C9.6051 7.76353 9.4091 7.95953 9.1676 7.95953H4.95594C4.71444 7.95953 4.51844 7.76353 4.51844 7.52203C4.51844 7.28053 4.71444 7.08453 4.95594 7.08453H9.1676ZM6.56284 4.64806C6.80434 4.64806 7.00034 4.84406 7.00034 5.08556C7.00034 5.32706 6.80434 5.52306 6.56284 5.52306H4.95576C4.71426 5.52306 4.51826 5.32706 4.51826 5.08556C4.51826 4.84406 4.71426 4.64806 4.95576 4.64806H6.56284Z" fill="black"/>
</svg>
