<svg width="14" height="15" viewBox="0 0 14 15" fill="none" xmlns="http://www.w3.org/2000/svg">
<path fill-rule="evenodd" clip-rule="evenodd" d="M6.5848 1.5C8.0524 1.5 9.2464 2.694 9.2464 4.1616V4.7208C9.2464 4.9692 9.0448 5.1708 8.7964 5.1708C8.548 5.1708 8.3464 4.9692 8.3464 4.7208V4.1616C8.3464 3.1896 7.5562 2.4 6.5848 2.4H3.6598C2.6896 2.4 1.9 3.1896 1.9 4.1616V10.839C1.9 11.8104 2.6896 12.6 3.6598 12.6H6.5914C7.5586 12.6 8.3464 11.8128 8.3464 10.8456V10.2798C8.3464 10.0314 8.548 9.8298 8.7964 9.8298C9.0448 9.8298 9.2464 10.0314 9.2464 10.2798V10.8456C9.2464 12.3096 8.0548 13.5 6.5914 13.5H3.6598C2.1934 13.5 1 12.3066 1 10.839V4.1616C1 2.694 2.1934 1.5 3.6598 1.5H6.5848ZM11.4329 5.4324L13.1897 7.1814C13.2053 7.19695 13.2194 7.21312 13.2322 7.23024L13.1897 7.1814C13.2109 7.20236 13.2298 7.22526 13.2462 7.24968C13.2534 7.26075 13.2604 7.27219 13.2669 7.28395C13.2721 7.29314 13.2769 7.30273 13.2814 7.31248C13.2852 7.32109 13.2888 7.32971 13.2922 7.33846C13.2967 7.34987 13.3007 7.36159 13.3041 7.37347C13.3068 7.38282 13.3092 7.39215 13.3113 7.4016C13.314 7.41306 13.3161 7.42459 13.3177 7.43621C13.3187 7.44376 13.3196 7.45168 13.3203 7.45966C13.3217 7.47334 13.3223 7.48664 13.3223 7.5L13.3192 7.5372L13.318 7.56104C13.3178 7.56205 13.3177 7.56307 13.3175 7.56409L13.3223 7.5C13.3223 7.53331 13.3186 7.56629 13.3114 7.59835C13.3092 7.60785 13.3068 7.61718 13.3041 7.62639C13.3007 7.63841 13.2967 7.65014 13.2923 7.66167C13.2888 7.67029 13.2852 7.67891 13.2813 7.68739C13.2769 7.69727 13.2721 7.70686 13.2669 7.71628C13.2604 7.72781 13.2534 7.73925 13.246 7.75034C13.2418 7.75692 13.2372 7.76342 13.2324 7.76979C13.2181 7.78859 13.2025 7.80627 13.1857 7.82264L11.4329 9.5682C11.3453 9.6558 11.2301 9.6996 11.1155 9.6996C11.0003 9.6996 10.8845 9.6558 10.7969 9.567C10.6217 9.3906 10.6223 9.1062 10.7981 8.931L11.782 7.95H5.64748C5.39908 7.95 5.19748 7.7484 5.19748 7.5C5.19748 7.2516 5.39908 7.05 5.64748 7.05H11.7832L10.7981 6.0696C10.6223 5.8944 10.6211 5.61 10.7969 5.4336C10.9721 5.2572 11.2565 5.2572 11.4329 5.4324Z" fill="#232323"/>
</svg>
