<svg width="80" height="80" viewBox="0 0 80 80" fill="none" xmlns="http://www.w3.org/2000/svg">
<path d="M40 25C37.0333 25 34.1332 25.8797 31.6664 27.528C29.1997 29.1762 27.2771 31.5189 26.1418 34.2597C25.0065 37.0006 24.7094 40.0166 25.2882 42.9264C25.867 45.8361 27.2956 48.5088 29.3934 50.6066C31.4912 52.7044 34.1639 54.133 37.0736 54.7118C39.9834 55.2906 42.9994 54.9935 45.7402 53.8582C48.4811 52.7229 50.8238 50.8003 52.472 48.3336C54.1203 45.8668 55 42.9667 55 40C54.9959 36.023 53.4142 32.2101 50.602 29.398C47.7899 26.5858 43.977 25.0041 40 25ZM40 47.5C38.5166 47.5 37.0666 47.0601 35.8332 46.236C34.5999 45.4119 33.6386 44.2406 33.0709 42.8701C32.5032 41.4997 32.3547 39.9917 32.6441 38.5368C32.9335 37.082 33.6478 35.7456 34.6967 34.6967C35.7456 33.6478 37.082 32.9335 38.5368 32.6441C39.9917 32.3547 41.4997 32.5032 42.8701 33.0709C44.2406 33.6386 45.4119 34.5999 46.236 35.8332C47.0601 37.0666 47.5 38.5166 47.5 40C47.5 41.9891 46.7098 43.8968 45.3033 45.3033C43.8968 46.7098 41.9891 47.5 40 47.5ZM55 6.25H25C20.029 6.25579 15.2632 8.23309 11.7481 11.7481C8.23309 15.2632 6.25579 20.029 6.25 25V55C6.25579 59.971 8.23309 64.7368 11.7481 68.2519C15.2632 71.7669 20.029 73.7442 25 73.75H55C59.971 73.7442 64.7368 71.7669 68.2519 68.2519C71.7669 64.7368 73.7442 59.971 73.75 55V25C73.7442 20.029 71.7669 15.2632 68.2519 11.7481C64.7368 8.23309 59.971 6.25579 55 6.25ZM66.25 55C66.25 57.9837 65.0647 60.8452 62.9549 62.9549C60.8452 65.0647 57.9837 66.25 55 66.25H25C22.0163 66.25 19.1548 65.0647 17.045 62.9549C14.9353 60.8452 13.75 57.9837 13.75 55V25C13.75 22.0163 14.9353 19.1548 17.045 17.045C19.1548 14.9353 22.0163 13.75 25 13.75H55C57.9837 13.75 60.8452 14.9353 62.9549 17.045C65.0647 19.1548 66.25 22.0163 66.25 25V55ZM61.25 23.75C61.25 24.7389 60.9568 25.7056 60.4073 26.5279C59.8579 27.3501 59.077 27.991 58.1634 28.3694C57.2498 28.7478 56.2445 28.8469 55.2745 28.6539C54.3046 28.461 53.4137 27.9848 52.7145 27.2855C52.0152 26.5863 51.539 25.6954 51.3461 24.7255C51.1531 23.7555 51.2522 22.7502 51.6306 21.8366C52.009 20.923 52.6499 20.1421 53.4721 19.5927C54.2944 19.0432 55.2611 18.75 56.25 18.75C57.5761 18.75 58.8479 19.2768 59.7855 20.2145C60.7232 21.1521 61.25 22.4239 61.25 23.75Z" fill="#1A776F"/>
</svg>
