<svg width="41" height="40" viewBox="0 0 41 40" fill="none" xmlns="http://www.w3.org/2000/svg">
<path d="M27.485 3.33301C32.6333 3.33301 35.5 6.29967 35.5 11.383V28.5997C35.5 33.7663 32.6333 36.6663 27.485 36.6663H13.5167C8.45 36.6663 5.5 33.7663 5.5 28.5997V11.383C5.5 6.29967 8.45 3.33301 13.5167 3.33301H27.485ZM13.9667 26.233C13.4667 26.183 12.9833 26.4163 12.7167 26.8497C12.45 27.2663 12.45 27.8163 12.7167 28.2497C12.9833 28.6663 13.4667 28.9163 13.9667 28.8497H27.0333C27.6983 28.783 28.2 28.2147 28.2 27.5497C28.2 26.8663 27.6983 26.2997 27.0333 26.233H13.9667ZM27.0333 18.6313H13.9667C13.2483 18.6313 12.6667 19.2163 12.6667 19.933C12.6667 20.6497 13.2483 21.233 13.9667 21.233H27.0333C27.75 21.233 28.3333 20.6497 28.3333 19.933C28.3333 19.2163 27.75 18.6313 27.0333 18.6313ZM18.9483 11.083H13.9667V11.0997C13.2483 11.0997 12.6667 11.683 12.6667 12.3997C12.6667 13.1163 13.2483 13.6997 13.9667 13.6997H18.9483C19.6667 13.6997 20.25 13.1163 20.25 12.3813C20.25 11.6663 19.6667 11.083 18.9483 11.083Z" fill="#232323"/>
</svg>
