<svg width="80" height="80" viewBox="0 0 80 80" fill="none" xmlns="http://www.w3.org/2000/svg">
<path d="M63.5 16.3662C60.444 13.2793 56.8039 10.8318 52.7921 9.16638C48.7803 7.501 44.477 6.65108 40.1333 6.66621C21.9333 6.66621 7.09998 21.4995 7.09998 39.6995C7.09998 45.5329 8.63331 51.1995 11.5 56.1995L6.83331 73.3329L24.3333 68.7329C29.1666 71.3662 34.6 72.7662 40.1333 72.7662C58.3333 72.7662 73.1667 57.9329 73.1667 39.7329C73.1667 30.8995 69.7333 22.5995 63.5 16.3662ZM40.1333 67.1662C35.2 67.1662 30.3666 65.8329 26.1333 63.3329L25.1333 62.7329L14.7333 65.4662L17.5 55.3329L16.8333 54.2995C14.0925 49.9228 12.6371 44.8637 12.6333 39.6995C12.6333 24.5662 24.9666 12.2329 40.1 12.2329C47.4333 12.2329 54.3333 15.0995 59.5 20.2995C62.0583 22.8461 64.0856 25.8751 65.4646 29.211C66.8436 32.5468 67.5468 36.1232 67.5333 39.7329C67.6 54.8662 55.2666 67.1662 40.1333 67.1662ZM55.2 46.6329C54.3666 46.2329 50.3 44.2329 49.5666 43.9329C48.8 43.6662 48.2666 43.5329 47.7 44.3329C47.1333 45.1662 45.5666 47.0329 45.1 47.5662C44.6333 48.1329 44.1333 48.1995 43.3 47.7662C42.4666 47.3662 39.8 46.4662 36.6666 43.6662C34.2 41.4662 32.5666 38.7662 32.0666 37.9329C31.6 37.0995 32 36.6662 32.4333 36.2329C32.8 35.8662 33.2666 35.2662 33.6666 34.7995C34.0666 34.3329 34.2333 33.9662 34.5 33.4329C34.7666 32.8662 34.6333 32.3995 34.4333 31.9995C34.2333 31.5995 32.5666 27.5329 31.9 25.8662C31.2333 24.2662 30.5333 24.4662 30.0333 24.4329H28.4333C27.8666 24.4329 27 24.6329 26.2333 25.4662C25.5 26.2995 23.3666 28.2995 23.3666 32.3662C23.3666 36.4329 26.3333 40.3662 26.7333 40.8995C27.1333 41.4662 32.5666 49.7995 40.8333 53.3662C42.8 54.2329 44.3333 54.7329 45.5333 55.0995C47.5 55.7329 49.3 55.6329 50.7333 55.4329C52.3333 55.1995 55.6333 53.4329 56.3 51.4995C57 49.5662 57 47.9329 56.7667 47.5662C56.5333 47.1995 56.0333 47.0329 55.2 46.6329Z" fill="#1A776F"/>
</svg>
